<?xml version="1.0" encoding="utf-8"?>
<!-- Generator: Adobe Illustrator 22.0.0, SVG Export Plug-In . SVG Version: 6.00 Build 0)  -->
<svg version="1.1" id="Camada_1" xmlns="http://www.w3.org/2000/svg" xmlns:xlink="http://www.w3.org/1999/xlink" x="0px" y="0px"
	 viewBox="0 0 400 250" style="enable-background:new 0 0 400 250;" xml:space="preserve">
<style type="text/css">
	.st0{fill:#32323D;}
	.st1{font-family:'Roboto-Italic';}
	.st2{font-size:139.7491px;}
	.st3{fill:#662D91;}
	.st4{fill:#C1272D;}
	.st5{fill:#F7931E;}
	.st6{fill:#9E005D;}
	.st7{fill:#0000FF;}
	.st8{fill:#F15A24;}
	.st9{fill:#333333;}
	.st10{fill:#0071BC;}
	.st11{font-size:140.5112px;}
</style>
<text transform="matrix(1 0 0 1 2.0005 222.1289)" class="st0 st1 st2">i</text>
<g>
	<path class="st3" d="M150.5,10.3c2.2,0,4.2,0,6.4,0c0,40.6,0,81,0,121.8c-2,0-4,0-6.4,0C150.5,91.6,150.5,51.1,150.5,10.3z"/>
	<path class="st4" d="M181,117c-2.2,0-4,0-6.3,0c0-30.4,0-60.8,0-91.4c2.1,0,4,0,6.3,0C181,56.1,181,86.5,181,117z"/>
	<path class="st5" d="M222.6,28.9c2.1,0,4.1,0,6.4,0c0,28.3,0,56.5,0,84.9c-2.2,0-4.1,0-6.4,0C222.6,85.5,222.6,57.4,222.6,28.9z"/>
	<path class="st6" d="M132.7,103.4c-2.1,0-4.1,0-6.3,0c0-21.4,0-42.6,0-64.1c2.1,0,4,0,6.3,0C132.7,60.5,132.7,81.6,132.7,103.4z"/>
	<path class="st7" d="M253.1,99.7c-0.8,0.1-1.6,0.3-2.4,0.4c-1.2,0.1-2.4,0-3.9,0c0-19.2,0-38.1,0-57.2c2,0,4,0,6.2,0
		C253.1,61.8,253.1,80.6,253.1,99.7z"/>
	<path class="st8" d="M204.8,48.6c0,15.1,0,30.2,0,45.6c-2.1,0-4,0-6.4,0c-0.1-1.4-0.3-2.8-0.3-4.2c0-12.1,0-24.2,0-36.3
		C198.2,47.5,198.2,47.4,204.8,48.6z"/>
	<path class="st9" d="M108.5,83.8c-2.2,0-4.1,0-6.4,0c0-8.2,0-16.3,0-24.8c1.9,0,4,0,6.4,0C108.5,67.1,108.5,75.3,108.5,83.8z"/>
	<path class="st10" d="M270.9,80.5c0-6.1,0-12.1,0-18.4c2.2,0,4.2,0,6.5,0c0,6.1,0,12.1,0,18.4C275.3,80.5,273.2,80.5,270.9,80.5z"
		/>
</g>
<text transform="matrix(1 0 0 1 23.9731 222.5625)" class="st0 st1 st11">music</text>
</svg>
